<?xml version="1.0" standalone="no"?>
<!DOCTYPE svg PUBLIC "-//W3C//DTD SVG 20010904//EN"
 "http://www.w3.org/TR/2001/REC-SVG-20010904/DTD/svg10.dtd">
<svg version="1.0" xmlns="http://www.w3.org/2000/svg"
 width="16.000000pt" height="16.000000pt" viewBox="0 0 16.000000 16.000000"
 preserveAspectRatio="xMidYMid meet">
<metadata>
Created by potrace 1.11, written by Peter Selinger 2001-2013
</metadata>
<g transform="translate(0.000000,16.000000) scale(0.007547,-0.007547)"
fill="#000000" stroke="none">
<path d="M741 2074 c-307 -91 -562 -327 -680 -631 -53 -137 -63 -205 -58 -408
4 -172 7 -198 32 -275 114 -354 394 -622 750 -716 88 -24 119 -27 260 -27 143
0 170 3 260 27 530 144 860 643 780 1178 -61 408 -360 748 -755 857 -65 18
-102 21 -290 20 -199 0 -221 -2 -299 -25z m414 -119 c337 -35 654 -304 749
-635 26 -92 28 -111 32 -235 5 -197 -39 -354 -147 -515 -132 -196 -327 -330
-558 -380 -93 -21 -271 -25 -342 -8 -24 5 -54 12 -67 14 -41 8 -156 54 -210
85 -229 129 -402 364 -446 604 -3 17 -8 44 -11 60 -7 38 -7 188 0 235 58 417
395 743 805 777 36 3 66 6 67 7 3 3 56 -1 128 -9z"/>
<path d="M1223 1390 c-18 -5 -19 -22 -18 -313 l0 -309 175 4 c164 3 178 5 230
29 70 33 119 80 150 144 21 43 25 64 25 145 -1 83 -4 101 -27 146 -43 81 -123
137 -218 150 -53 8 -293 10 -317 4z m338 -92 c114 -49 158 -157 124 -305 -11
-47 -68 -109 -119 -128 -31 -12 -79 -18 -160 -19 l-116 -1 0 236 0 236 118 -2
c79 -1 129 -7 153 -17z"/>
<path d="M383 1378 c-1 -25 -20 -280 -27 -363 -3 -27 -8 -90 -11 -140 -4 -49
-9 -93 -12 -97 -2 -5 16 -8 41 -8 37 0 46 4 47 18 0 9 2 24 4 32 1 8 6 65 9
125 4 61 9 124 11 140 2 17 5 51 6 78 1 26 5 49 9 52 4 2 25 -17 48 -43 103
-118 158 -178 171 -186 12 -8 19 -2 145 137 49 54 93 94 97 90 4 -4 10 -46 13
-93 4 -47 8 -103 10 -125 2 -22 7 -78 11 -125 3 -47 10 -89 14 -93 5 -5 24 -7
42 -5 32 3 34 5 32 38 -3 67 -18 257 -28 350 -5 54 -18 200 -18 218 -1 30 -39
6 -109 -70 -41 -46 -103 -112 -137 -148 l-61 -65 -62 66 c-35 36 -96 102 -137
147 -68 76 -107 100 -108 70z"/>
</g>
</svg>
